<svg width="100" height="72" viewBox="0 0 100 72" fill="none" xmlns="http://www.w3.org/2000/svg">
<path d="M25.3179 42.9782L16.9539 38.1746L33.4558 28.5957L25.0918 23.792L8.44871 33.3145V52.529L25.0353 62.2492L50.0424 47.8666V57.3891L25.0353 71.8282L0 57.4174V28.5391L25.0918 14.0718L50.1554 28.5957L25.3179 42.9782Z" fill="white"/>
<path d="M50.0424 57.389L25.0353 71.8281V62.2492L50.0424 47.8666V57.389Z" fill="url(#paint0_linear_1_1334)" fill-opacity="0.5"/>
<path fill-rule="evenodd" clip-rule="evenodd" d="M50.0141 0V57.3608L74.9364 71.8847L99.9718 57.3608V28.6522L74.993 14.0718L58.2651 23.679V4.80362L50.0141 0ZM91.5766 33.3428L74.9364 23.7355L58.2962 33.3428V52.5572L74.9364 62.1645L91.5766 52.5572V33.3428Z" fill="white"/>
<path d="M100 57.389L74.9929 71.8281V62.2492L100 47.8666V57.389Z" fill="url(#paint1_linear_1_1334)" fill-opacity="0.5"/>
<path d="M83.3286 18.9319L58.265 33.371V23.7355L74.9364 14.0718L83.3286 18.9319Z" fill="url(#paint2_linear_1_1334)" fill-opacity="0.5"/>
<defs>
<linearGradient id="paint0_linear_1_1334" x1="16.8409" y1="73.0149" x2="52.1051" y2="52.4441" gradientUnits="userSpaceOnUse">
<stop stop-color="#564EA8"/>
<stop offset="1" stop-color="#6CB6EC" stop-opacity="0"/>
</linearGradient>
<linearGradient id="paint1_linear_1_1334" x1="66.7985" y1="73.0149" x2="102.063" y2="52.4441" gradientUnits="userSpaceOnUse">
<stop stop-color="#564EA8"/>
<stop offset="1" stop-color="#6CB6EC" stop-opacity="0"/>
</linearGradient>
<linearGradient id="paint2_linear_1_1334" x1="50.8053" y1="33.3993" x2="73.6366" y2="19.6666" gradientUnits="userSpaceOnUse">
<stop stop-color="#564EA8"/>
<stop offset="1" stop-color="#564EA8" stop-opacity="0"/>
</linearGradient>
</defs>
</svg>
